<svg xmlns="http://www.w3.org/2000/svg" width="48" height="48" viewBox="0 0 48 48">
  <path fill="#53606F" fill-opacity=".5" d="M39,30 C38.068,30 37.17,30.142 36.324,30.406 L29.262,16.286 C31.522,14.65 33,11.998 33,9.001 C33,4.038 28.962,0 24,0 C19.038,0 15,4.038 15,9.001 C15,11.998 16.479,14.651 18.739,16.287 L11.679,30.407 C10.832,30.143 9.933,30 9,30 C4.038,30 0,34.038 0,39 C0,43.962 4.038,48 9,48 C13.624,48 17.441,44.493 17.941,40 L30.059,40 C30.559,44.493 34.376,48 39,48 C43.962,48 48,43.962 48,39 C48,34.038 43.962,30 39,30 Z M17,9.001 C17,5.141 20.14,2 24,2 C27.86,2 31,5.141 31,9.001 C31,12.86 27.86,16 24,16 C20.14,16 17,12.86 17,9.001 Z M20.478,17.281 C21.561,17.743 22.751,18 24,18 C25.25,18 26.44,17.743 27.523,17.28 L34.495,31.221 C32.086,32.622 30.381,35.103 30.059,38 L17.941,38 C17.619,35.104 15.915,32.624 13.508,31.223 L20.478,17.281 Z M9,46 C5.14,46 2,42.86 2,39 C2,35.14 5.14,32 9,32 C12.86,32 16,35.14 16,39 C16,42.86 12.86,46 9,46 Z M39,46 C35.14,46 32,42.86 32,39 C32,35.14 35.14,32 39,32 C42.86,32 46,35.14 46,39 C46,42.86 42.86,46 39,46 Z"/>
</svg>
