<svg xmlns="http://www.w3.org/2000/svg" width="24" height="23" viewBox="0 0 24 23">
  <path fill="#EE5FDE" d="M23.7988992,40.121395 C24.0313298,40.3106645 24.0675458,40.6537496 23.8799797,40.888291 L10.3665718,57.7970944 C10.2703564,57.9176378 10.1281953,57.9907274 9.97468301,57.9994546 C9.96495335,58 9.95576424,58 9.94603458,58 C9.80279246,58 9.6649557,57.9427282 9.56387541,57.8401845 L4.15851227,52.3857318 C3.94716258,52.1724627 3.94716258,51.8277413 4.15851227,51.6144722 C4.36986197,51.4012031 4.71148092,51.4012031 4.92283062,51.6144722 L9.90279168,56.6396595 L23.0389052,40.2032118 C23.2259307,39.9692157 23.5659281,39.9310346 23.7988992,40.121395 Z M20.4473684,49.7368421 C20.7529737,49.7368421 21,49.9844211 21,50.2894737 L21,62.4473684 C21,62.7524211 20.7529737,63 20.4473684,63 L0.552631579,63 C0.247026316,63 0,62.7524211 0,62.4473684 L0,42.5526316 C0,42.2475789 0.247026316,42 0.552631579,42 L14.9210526,42 C15.2266579,42 15.4736842,42.2475789 15.4736842,42.5526316 C15.4736842,42.8576842 15.2266579,43.1052632 14.9210526,43.1052632 L1.10526316,43.1052632 L1.10526316,61.8947368 L19.8947368,61.8947368 L19.8947368,50.2894737 C19.8947368,49.9844211 20.1417632,49.7368421 20.4473684,49.7368421 Z" transform="translate(0 -40)"/>
</svg>
