<svg xmlns="http://www.w3.org/2000/svg" width="48" height="48" viewBox="0 0 48 48">
  <path fill="#53606F" fill-opacity=".5" d="M48,25 C48,22.585 46.279,20.566 44,20.101 L44,19 C44,16.243 41.757,14 39,14 L38.949,14 C38.431,6.195 31.933,0 24,0 C16.066,0 9.569,6.195 9.051,14 L9,14 C6.243,14 4,16.243 4,19 L4,20.101 C1.721,20.566 0,22.585 0,25 C0,27.415 1.721,29.434 4,29.899 L4,31 C4,33.757 6.243,36 9,36 L13,36 C13.553,36 14,35.552 14,35 L14,15 C14,14.448 13.553,14 13,14 L11.051,14 C11.565,7.299 17.17,2 24,2 C30.831,2 36.435,7.299 36.949,14 L35,14 C34.447,14 34,14.448 34,15 L34,35 C34,35.552 34.447,36 35,36 L39,36 L39,37 C39,40.309 36.309,43 33,43 L29.858,43 C29.411,41.279 27.859,40 26,40 C23.794,40 22,41.794 22,44 C22,46.206 23.794,48 26,48 C27.859,48 29.411,46.721 29.858,45 L33,45 C37.411,45 41,41.411 41,37 L41,35.576 C42.763,34.802 44,33.045 44,31 L44,29.899 C46.279,29.434 48,27.415 48,25 Z M2,25 C2,23.698 2.839,22.599 4,22.184 L4,27.815 C2.839,27.401 2,26.302 2,25 Z M12,34 L9,34 C7.346,34 6,32.654 6,31 L6,19 C6,17.346 7.346,16 9,16 L12,16 L12,34 Z M26,46 C24.897,46 24,45.103 24,44 C24,42.897 24.897,42 26,42 C27.102,42 28,42.897 28,44 C28,45.103 27.102,46 26,46 Z M42,31 C42,32.654 40.654,34 39,34 L36,34 L36,16 L39,16 C40.654,16 42,17.346 42,19 L42,31 Z M44,27.816 L44,22.185 C45.161,22.599 46,23.699 46,25.001 C46,26.303 45.161,27.401 44,27.816 Z"/>
</svg>
