<svg xmlns="http://www.w3.org/2000/svg" width="48" height="48" viewBox="0 0 48 48">
  <g fill="none">
    <path fill="#53606F" fill-opacity=".5" d="M47,4 L40,4 L40,1 C40,0.448 39.553,0 39,0 L33,0 C32.447,0 32,0.448 32,1 L32,4 L16,4 L16,1 C16,0.448 15.553,0 15,0 L9,0 C8.447,0 8,0.448 8,1 L8,4 L1,4 C0.447,4 0,4.448 0,5 L0,47 C0,47.552 0.447,48 1,48 L47,48 C47.553,48 48,47.552 48,47 L48,5 C48,4.448 47.553,4 47,4 Z M34,2 L38,2 L38,8 L34,8 L34,2 Z M10,2 L14,2 L14,8 L10,8 L10,2 Z M8,6 L8,9 C8,9.552 8.447,10 9,10 L15,10 C15.553,10 16,9.552 16,9 L16,6 L32,6 L32,9 C32,9.552 32.447,10 33,10 L39,10 C39.553,10 40,9.552 40,9 L40,6 L46,6 L46,14 L2,14 L2,6 L8,6 Z M2,46 L2,16 L46,16 L46,46 L2,46 Z"/>
    <path fill="#EE5FDE" d="M43,24 C43.553,24 44,23.552 44,23 C44,22.448 43.553,22 43,22 L36,22 L36,19 C36,18.448 35.553,18 35,18 C34.447,18 34,18.448 34,19 L34,22 L25,22 L25,19 C25,18.448 24.553,18 24,18 C23.447,18 23,18.448 23,19 L23,22 L14,22 L14,19 C14,18.448 13.553,18 13,18 C12.447,18 12,18.448 12,19 L12,22 L5,22 C4.447,22 4,22.448 4,23 C4,23.552 4.447,24 5,24 L12,24 L12,30 L5,30 C4.447,30 4,30.448 4,31 C4,31.552 4.447,32 5,32 L12,32 L12,38 L5,38 C4.447,38 4,38.448 4,39 C4,39.552 4.447,40 5,40 L12,40 L12,43 C12,43.552 12.447,44 13,44 C13.553,44 14,43.552 14,43 L14,40 L23,40 L23,43 C23,43.552 23.447,44 24,44 C24.553,44 25,43.552 25,43 L25,40 L34,40 L34,43 C34,43.552 34.447,44 35,44 C35.553,44 36,43.552 36,43 L36,40 L43,40 C43.553,40 44,39.552 44,39 C44,38.448 43.553,38 43,38 L36,38 L36,32 L43,32 C43.553,32 44,31.552 44,31 C44,30.448 43.553,30 43,30 L36,30 L36,24 L43,24 Z M14,24 L23,24 L23,30 L14,30 L14,24 Z M14,38 L14,32 L23,32 L23,38 L14,38 Z M34,38 L25,38 L25,32 L34,32 L34,38 Z M34,30 L25,30 L25,24 L34,24 L34,30 Z"/>
  </g>
</svg>
