<svg xmlns="http://www.w3.org/2000/svg" width="48" height="48" viewBox="0 0 48 48">
  <g fill="none">
    <path fill="#53606F" fill-opacity=".5" d="M47,0 L1,0 C0.447,0 0,0.448 0,1 L0,47 C0,47.552 0.447,48 1,48 L47,48 C47.553,48 48,47.552 48,47 L48,1 C48,0.448 47.553,0 47,0 Z M46,46 L2,46 L2,2 L46,2 L46,46 Z"/>
    <path fill="#53606F" fill-opacity=".5" d="M27 14L41 14C41.553 14 42 13.552 42 13 42 12.448 41.553 12 41 12L27 12C26.447 12 26 12.448 26 13 26 13.552 26.447 14 27 14zM21 20L41 20C41.553 20 42 19.552 42 19 42 18.448 41.553 18 41 18L21 18C20.447 18 20 18.448 20 19 20 19.552 20.447 20 21 20zM21 26L41 26C41.553 26 42 25.552 42 25 42 24.448 41.553 24 41 24L21 24C20.447 24 20 24.448 20 25 20 25.552 20.447 26 21 26zM21 32L41 32C41.553 32 42 31.552 42 31 42 30.448 41.553 30 41 30L21 30C20.447 30 20 30.448 20 31 20 31.552 20.447 32 21 32zM21 38L35 38C35.553 38 36 37.552 36 37 36 36.448 35.553 36 35 36L21 36C20.447 36 20 36.448 20 37 20 37.552 20.447 38 21 38z"/>
    <path fill="#EE5FDE" d="M7 16L15 16C15.553 16 16 15.552 16 15L16 7C16 6.448 15.553 6 15 6L7 6C6.447 6 6 6.448 6 7L6 15C6 15.552 6.447 16 7 16zM8 8L14 8 14 14 8 14 8 8zM7 30L15 30C15.553 30 16 29.552 16 29L16 19C16 18.448 15.553 18 15 18L7 18C6.447 18 6 18.448 6 19L6 29C6 29.552 6.447 30 7 30zM8 20L14 20 14 28 8 28 8 20zM7 42L15 42C15.553 42 16 41.552 16 41L16 33C16 32.448 15.553 32 15 32L7 32C6.447 32 6 32.448 6 33L6 41C6 41.552 6.447 42 7 42zM8 34L14 34 14 40 8 40 8 34z"/>
  </g>
</svg>
