<svg xmlns="http://www.w3.org/2000/svg" width="48" height="48" viewBox="0 0 48 48">
  <g fill="none">
    <path fill="#53606F" fill-opacity=".5" d="M47.707,46.293 L33.102,31.688 C36.136,28.32 38,23.879 38,19 C38,8.523 29.477,0 19,0 C8.523,0 0,8.523 0,19 C0,29.477 8.523,38 19,38 C23.879,38 28.32,36.136 31.688,33.102 L46.293,47.707 C46.488,47.902 46.744,48 47,48 C47.256,48 47.512,47.902 47.707,47.707 C48.098,47.316 48.098,46.684 47.707,46.293 Z M19,36 C9.626,36 2,28.374 2,19 C2,9.626 9.626,2 19,2 C28.374,2 36,9.626 36,19 C36,28.374 28.374,36 19,36 Z"/>
    <path fill="#EE5FDE" d="M24,24.559 C24.742,23.989 25.832,22.655 25.982,19.7 C26.817,19.147 27.292,17.911 27.292,16.705 C27.292,16.038 27.14,15.443 26.852,14.985 C26.715,14.766 26.549,14.581 26.361,14.433 C26.802,13.406 27.442,11.645 26.97,9.757 C26.277,6.984 22.782,6 20,6 C17.522,6 14.479,6.781 13.355,8.912 C12.451,8.869 11.766,9.129 11.317,9.678 C10.294,10.929 11.112,12.985 11.715,14.41 C11.508,14.564 11.327,14.757 11.178,14.99 C10.878,15.456 10.72,16.061 10.72,16.739 C10.72,17.93 11.191,19.152 12.019,19.701 C12.168,22.655 13.259,23.989 14.001,24.56 L14.001,27.326 C12.516,27.933 10.996,28.605 9.57,29.284 L10.429,31.09 C12.019,30.333 13.729,29.585 15.371,28.929 C15.751,28.777 16,28.409 16,28 L16,24 C16,23.608 15.726,23.233 15.369,23.071 C15.356,23.065 14,22.409 14,19 C14,18.478 13.6,18.049 13.089,18.004 C12.864,17.789 12.587,16.877 12.783,16.241 C12.858,16 12.92,16 13,16 C13.552,16 14,15.552 14,15 C14,14.681 13.872,14.379 13.617,13.778 C12.776,11.796 12.744,11.14 12.851,10.955 C12.853,10.953 13.068,10.83 13.8,10.98 C14.323,11.086 14.84,10.763 14.97,10.243 C15.295,8.943 17.41,8 20,8 C22.59,8 24.705,8.943 25.03,10.242 C25.392,11.692 24.761,13.114 24.383,13.963 C24.184,14.411 24.064,14.682 24.064,15 C24.064,15.552 24.572,16.007 25.124,16.007 C25.167,16.035 25.287,16.245 25.292,16.677 C25.3,17.32 25.059,17.857 24.91,18.004 C24.4,18.049 24,18.478 24,19 C24,22.386 22.662,23.056 22.67,23.056 C22.269,23.196 22,23.575 22,24 L22,28 C22,28.409 22.249,28.776 22.629,28.929 C24.272,29.586 25.98,30.333 27.568,31.089 L28.427,29.283 C27.003,28.605 25.485,27.934 24,27.326 L24,24.559 Z"/>
  </g>
</svg>
