<svg xmlns="http://www.w3.org/2000/svg" width="280" height="188" viewBox="0 0 280 188">
  <g fill="none">
    <g transform="translate(128 80)">
      <path fill="#53606F" fill-opacity=".75" d="M122.942,73.6582724 C121.23,72.9422724 119.476,72.1802724 117.73,71.4322724 C119.932,69.4762724 121.862,67.2082724 123.334,64.6342724 C125.28,67.6722724 128.712,70.0362724 132.896,70.8942724 C138.422,72.0282724 146.174,70.3222724 149.838,61.7722724 C150.104,61.1542724 150.038,60.4442724 149.67,59.8842724 C149.298,59.3222724 148.672,58.9842724 148,58.9842724 C142.6,58.9842724 140.568,50.2042724 138.418,40.9102724 C135.992,30.4242724 133.244,18.5402724 124.552,14.4502724 C119.202,11.9322724 112.472,12.6882724 104,16.7562724 C95.524,12.6882724 88.794,11.9362724 83.448,14.4502724 C74.756,18.5422724 72.008,30.4262724 69.582,40.9102724 C67.432,50.2042724 65.4,58.9842724 60,58.9842724 C59.328,58.9842724 58.702,59.3222724 58.33,59.8842724 C57.96,60.4442724 57.896,61.1542724 58.162,61.7722724 C61.176,68.8042724 66.962,71.2062724 72.002,71.2062724 C73.092,71.2062724 74.144,71.0962724 75.132,70.8922724 C79.306,70.0342724 82.736,67.6862724 84.688,64.6622724 C86.156,67.2242724 88.078,69.4822724 90.27,71.4282724 C88.524,72.1782724 86.768,72.9402724 85.056,73.6562724 C70.114,79.9102724 56,85.8162724 56,98.9842724 L56,107.010272 L152,107.010272 L152,98.9842724 C152,85.8162724 137.884,79.9102724 122.942,73.6582724 Z M74.326,66.9742724 C72.482,67.3522724 66.708,68.0042724 63.058,62.4802724 C69.206,60.2902724 71.29,51.2782724 73.48,41.8122724 C75.7,32.2142724 78.218,21.3342724 85.154,18.0702724 C89.496,16.0242724 95.372,16.9082724 103.106,20.7742724 C103.67,21.0562724 104.334,21.0562724 104.896,20.7742724 C112.624,16.9082724 118.496,16.0222724 122.848,18.0702724 C129.784,21.3342724 132.302,32.2142724 134.522,41.8122724 C136.712,51.2782724 138.796,60.2902724 144.944,62.4802724 C141.3,68.0002724 135.538,67.3562724 133.702,66.9762724 C129.69,66.1542724 125.638,63.1622724 125.604,59.0342724 C125.628,58.9382724 125.662,58.8462724 125.686,58.7482724 C128.556,57.9022724 130.502,54.8982724 130.502,50.9862724 C130.502,47.0442724 128.526,44.0222724 125.62,43.2042724 L123.942,36.5002724 C123.718,35.6102724 122.92,34.9862724 122.002,34.9862724 C110.066,34.9862724 108.056,31.6242724 106.726,29.4002724 C106.332,28.7382724 105.956,28.1142724 105.416,27.5722724 C104.666,26.8222724 103.338,26.8222724 102.588,27.5722724 C102.048,28.1142724 101.672,28.7382724 101.278,29.4002724 C99.948,31.6242724 97.938,34.9862724 86.002,34.9862724 C85.084,34.9862724 84.284,35.6102724 84.062,36.5002724 L82.386,43.2002724 C81.01,43.5782724 79.828,44.4522724 78.962,45.7502724 C78.022,47.1622724 77.502,49.0222724 77.502,50.9842724 C77.502,54.8962724 79.446,57.9022724 82.318,58.7462724 C82.348,58.8762724 82.394,58.9962724 82.426,59.1262724 C82.332,63.2022724 78.312,66.1562724 74.326,66.9742724 Z M85.972,56.6562724 C85.812,55.6922724 84.978,54.9842724 84,54.9842724 C82.024,54.9842724 81.5,52.3682724 81.5,50.9842724 C81.5,49.6002724 82.024,46.9842724 84,46.9842724 C84.918,46.9842724 85.718,46.3602724 85.94,45.4702724 L87.566,38.9642724 C98.138,38.6962724 101.842,35.6922724 104,32.5622724 C106.158,35.6942724 109.862,38.6982724 120.434,38.9662724 L122.06,45.4702724 C122.284,46.3602724 123.082,46.9842724 124,46.9842724 C125.976,46.9842724 126.5,49.6002724 126.5,50.9842724 C126.5,52.3682724 125.976,54.9842724 124,54.9842724 C123.022,54.9842724 122.188,55.6922724 122.028,56.6562724 C120.104,68.2022724 107.788,73.4982724 104,74.8682724 C100.21,73.4982724 87.896,68.2022724 85.972,56.6562724 Z M60,103.010272 L60,98.9842724 C60,91.1102724 66.924,86.2402724 76.402,81.7802724 C77.982,87.2342724 84.098,90.5402724 90.052,93.7442724 C95.312,96.5782724 100.308,99.2782724 101.642,103.010272 L60,103.010272 L60,103.010272 Z M104,98.9482724 C101.396,95.3182724 96.622,92.7382724 91.948,90.2242724 C86.294,87.1782724 80.942,84.2862724 80.12,80.1022724 C82.21,79.1862724 84.376,78.2762724 86.6,77.3442724 C88.994,76.3442724 91.446,75.3022724 93.894,74.2282724 C96.938,76.2762724 100.228,77.8362724 103.368,78.8822724 C103.572,78.9502724 103.788,78.9842724 104,78.9842724 C104.212,78.9842724 104.428,78.9502724 104.636,78.8842724 C107.774,77.8382724 111.062,76.2802724 114.106,74.2322724 C116.554,75.3042724 119.004,76.3462724 121.398,77.3482724 C123.622,78.2782724 125.788,79.1902724 127.878,80.1042724 C127.054,84.2882724 121.704,87.1782724 116.052,90.2242724 C111.378,92.7402724 106.604,95.3182724 104,98.9482724 Z M148,103.010272 L106.358,103.010272 C107.692,99.2782724 112.69,96.5782724 117.948,93.7442724 C123.902,90.5402724 130.016,87.2342724 131.598,81.7822724 C141.076,86.2422724 148,91.1122724 148,98.9842724 L148,103.010272 Z M94,47.0262724 C93.98,48.1162724 93.094,48.9922724 92,48.9922724 C90.894,48.9922724 90,48.0962724 90,46.9922724 C90,45.8002724 90.358,44.8402724 91.062,44.1422724 C92.248,42.9642724 93.906,42.9762724 95.486,42.9902724 L96,42.9902724 L96.514,42.9882724 C98.098,42.9822724 99.752,42.9622724 100.938,44.1402724 C101.642,44.8382724 102,45.7982724 102,46.9902724 C102,48.0942724 101.106,48.9902724 100,48.9902724 C98.906,48.9902724 98.02,48.1142724 98,47.0242724 C97.624,46.9802724 96.996,46.9862724 96.544,46.9862724 L96,46.9902724 L95.454,46.9882724 C95.004,46.9862724 94.374,46.9802724 94,47.0262724 Z M108,48.9922724 C106.894,48.9922724 106,48.0962724 106,46.9922724 C106,45.8002724 106.358,44.8402724 107.062,44.1422724 C108.248,42.9642724 109.9,42.9762724 111.486,42.9902724 L112,42.9902724 L112.514,42.9882724 C114.092,42.9822724 115.752,42.9622724 116.938,44.1402724 C117.642,44.8382724 118,45.7982724 118,46.9902724 C118,48.0942724 117.106,48.9902724 116,48.9902724 C114.906,48.9902724 114.02,48.1142724 114,47.0242724 C113.626,46.9802724 112.998,46.9862724 112.544,46.9862724 L112,46.9902724 L111.454,46.9882724 C111.006,46.9862724 110.374,46.9802724 110,47.0262724 C109.98,48.1162724 109.094,48.9922724 108,48.9922724 Z"/>
      <g transform="matrix(-1 0 0 1 48 0)">
        <path fill="#53606F" fill-opacity=".5" d="M24,0.502 C10.767,0.502 0,9.369 0,20.268 C0,25.414 2.355,30.237 6.65,33.931 L1.83,43.552 C1.64,43.933 1.711,44.392 2.008,44.697 C2.2,44.895 2.46,45 2.725,45 C2.867,45 3.012,44.97 3.146,44.907 L16.02,38.915 C18.576,39.657 21.259,40.033 24,40.033 C37.233,40.033 48,31.166 48,20.268 C48,9.369 37.233,0.502 24,0.502 Z M24,38.034 C21.324,38.034 18.712,37.65 16.234,36.893 C15.998,36.823 15.743,36.839 15.52,36.943 L4.903,41.884 L8.795,34.117 C9.006,33.695 8.893,33.183 8.525,32.888 C4.317,29.521 2,25.039 2,20.268 C2,10.472 11.869,2.502 24,2.502 C36.131,2.502 46,10.472 46,20.269 C46,30.065 36.131,38.034 24,38.034 Z"/>
        <path fill="#EE5FDE" d="M13 17.502C13.553 17.502 14 17.054 14 16.502 14 14.848 15.346 13.502 17 13.502 18.654 13.502 20 14.848 20 16.502 20 17.054 20.447 17.502 21 17.502 21.553 17.502 22 17.054 22 16.502 22 13.745 19.757 11.502 17 11.502 14.243 11.502 12 13.745 12 16.502 12 17.054 12.447 17.502 13 17.502zM27 17.502C27.553 17.502 28 17.054 28 16.502 28 14.848 29.346 13.502 31 13.502 32.654 13.502 34 14.848 34 16.502 34 17.054 34.447 17.502 35 17.502 35.553 17.502 36 17.054 36 16.502 36 13.745 33.757 11.502 31 11.502 28.243 11.502 26 13.745 26 16.502 26 17.054 26.447 17.502 27 17.502zM37 20.502C36.447 20.502 36 20.95 36 21.502 36 25.913 32.411 29.502 28 29.502L20 29.502C15.589 29.502 12 25.913 12 21.502 12 20.95 11.553 20.502 11 20.502 10.447 20.502 10 20.95 10 21.502 10 27.016 14.486 31.502 20 31.502L28 31.502C33.514 31.502 38 27.016 38 21.502 38 20.95 37.553 20.502 37 20.502z"/>
      </g>
    </g>
    <path fill="#53606F" fill-opacity=".75" d="M84.15,79.092 L62.54,73.112 C66.332,69.7 69.386,65.138 69.916,59.686 C72.658,58.752 74.498,55.804 74.498,52 C74.498,50.844 74.31,49.782 73.996,48.816 L75.99,34.2 C76.022,33.88 76.708,26.296 71.014,20.004 C66.208,14.692 58.464,12 48,12 C37.536,12 29.792,14.692 24.988,20.004 C19.294,26.296 19.978,33.88 20.02,34.272 L22.002,48.816 C21.688,49.78 21.5,50.844 21.5,52 C21.5,55.804 23.34,58.752 26.082,59.686 C26.614,65.164 29.696,69.744 33.516,73.162 L11.68,79.146 C4.694,81.766 0,88.54 0,96 L0,108 L36,108 L60,108 L96,108 L96,96 C96,88.538 91.306,81.766 84.15,79.092 Z M23.99,33.802 C23.984,33.74 23.436,27.678 27.952,22.688 C31.968,18.25 38.712,16 48,16 C57.252,16 63.984,18.234 68.006,22.642 C72.514,27.582 72.016,33.732 72.018,33.73 L70.536,44.584 C70.26,44.452 69.982,44.328 69.686,44.24 L67.96,35.608 C67.774,34.672 66.954,34 66,34 C54.064,34 52.054,30.638 50.724,28.414 C50.33,27.752 49.956,27.128 49.414,26.586 C48.664,25.836 47.336,25.836 46.586,26.586 C46.044,27.128 45.672,27.752 45.276,28.414 C43.946,30.638 41.936,34 30,34 C29.046,34 28.226,34.672 28.038,35.608 L26.312,44.24 C26.016,44.328 25.736,44.452 25.46,44.584 L23.99,33.802 Z M30,58 C30,56.896 29.104,56 28,56 C26.022,56 25.5,53.384 25.5,52 C25.5,50.616 26.022,48 28,48 C28.954,48 29.774,47.328 29.962,46.392 L31.644,37.978 C42.158,37.698 45.846,34.702 48,31.576 C50.154,34.7 53.842,37.698 64.356,37.978 L66.038,46.392 C66.226,47.328 67.046,48 68,48 C69.978,48 70.5,50.616 70.5,52 C70.5,53.384 69.978,56 68,56 C66.896,56 66,56.896 66,58 C66,68.4 53.37,76 48,76 C42.63,76 30,68.4 30,58 Z M52,79.264 L52,82 C52,84.206 50.206,86 48,86 C45.794,86 44,84.206 44,82 L44,79.264 C45.51,79.742 46.888,80 48,80 C49.112,80 50.49,79.742 52,79.264 Z M34.93,104 L4,104 L4,96 C4,90.196 7.65,84.928 12.91,82.948 L37.568,76.2 C38.38,76.714 39.192,77.182 40,77.596 L40,82 C40,85.248 41.952,88.036 44.738,89.288 L34.93,104 Z M39.738,104 L48,91.606 L56.264,104 L39.738,104 Z M92,104 L61.07,104 L51.262,89.288 C54.048,88.036 56,85.248 56,82 L56,77.594 C56.834,77.166 57.676,76.682 58.514,76.146 L82.914,82.89 C88.348,84.928 92,90.196 92,96 L92,104 Z M38,50.04 C37.982,51.13 37.092,52.006 36,52.006 C34.896,52.006 34,51.11 34,50.006 C34,48.814 34.358,47.854 35.062,47.156 C36.248,45.978 37.894,45.994 39.486,46.004 L40,46.006 L40.512,46.004 C42.104,45.992 43.75,45.98 44.936,47.156 C45.642,47.854 46,48.814 46,50.006 C46,51.11 45.104,52.006 44,52.006 C42.908,52.006 42.018,51.13 42,50.04 C41.622,49.994 40.994,49.998 40.544,50.004 L40,50.006 L39.456,50.004 C39.004,49.998 38.376,49.996 38,50.04 Z M52,52.006 C50.896,52.006 50,51.11 50,50.006 C50,48.814 50.358,47.854 51.062,47.156 C52.248,45.978 53.89,45.994 55.486,46.004 L56,46.006 L56.512,46.004 C58.1,45.992 59.752,45.98 60.936,47.156 C61.642,47.854 62,48.814 62,50.006 C62,51.11 61.104,52.006 60,52.006 C58.908,52.006 58.018,51.13 58,50.04 C57.622,49.994 56.996,49.998 56.544,50.004 L56,50.006 L55.456,50.004 C55.006,49.998 54.376,49.996 54,50.04 C53.982,51.13 53.092,52.006 52,52.006 Z"/>
    <g transform="translate(104)">
      <path fill="#53606F" fill-opacity=".5" d="M24,0.502 C10.767,0.502 0,9.369 0,20.268 C0,25.415 2.355,30.238 6.65,33.931 L1.83,43.552 C1.64,43.933 1.711,44.392 2.007,44.697 C2.2,44.895 2.46,45 2.725,45 C2.868,45 3.011,44.97 3.146,44.907 L16.02,38.916 C18.577,39.658 21.259,40.033 24,40.033 C37.233,40.033 48,31.166 48,20.268 C48,9.369 37.233,0.502 24,0.502 Z M24,38.033 C21.324,38.033 18.712,37.649 16.234,36.893 C15.999,36.822 15.744,36.839 15.52,36.943 L4.903,41.884 L8.794,34.117 C9.006,33.695 8.894,33.182 8.525,32.888 C4.317,29.522 2,25.04 2,20.268 C2,10.472 11.869,2.502 24,2.502 C36.131,2.502 46,10.472 46,20.268 C46,30.064 36.131,38.033 24,38.033 Z"/>
      <circle cx="25" cy="29.502" r="2" fill="#EE5FDE"/>
      <path fill="#EE5FDE" d="M25,9.627 C21.14,9.627 18,12.822 18,16.751 C18,17.303 18.448,17.751 19,17.751 C19.552,17.751 20,17.303 20,16.751 C20,13.974 22.29,11.627 25,11.627 C27.757,11.627 30,13.842 30,16.565 C30,19.287 27.757,21.502 25,21.502 C24.448,21.502 24,21.95 24,22.502 L24,25 C24,25.552 24.448,26 25,26 C25.552,26 26,25.552 26,25 L26,23.432 C29.388,22.95 32,20.054 32,16.565 C32,12.739 28.86,9.627 25,9.627 Z"/>
    </g>
  </g>
</svg>
