<svg xmlns="http://www.w3.org/2000/svg" width="280" height="344" viewBox="0 0 280 344">
  <g fill="none">
    <g transform="translate(0 193)">
      <path fill="#53606F" fill-opacity=".75" d="M66.942,60.6582724 C65.23,59.9422724 63.476,59.1802724 61.73,58.4322724 C63.932,56.4762724 65.862,54.2082724 67.334,51.6342724 C69.28,54.6722724 72.712,57.0362724 76.896,57.8942724 C82.422,59.0282724 90.174,57.3222724 93.838,48.7722724 C94.104,48.1542724 94.038,47.4442724 93.67,46.8842724 C93.298,46.3222724 92.672,45.9842724 92,45.9842724 C86.6,45.9842724 84.568,37.2042724 82.418,27.9102724 C79.992,17.4242724 77.244,5.54027243 68.552,1.45027243 C63.202,-1.06772757 56.472,-0.311727565 48,3.75627243 C39.524,-0.311727565 32.794,-1.06372757 27.448,1.45027243 C18.756,5.54227243 16.008,17.4262724 13.582,27.9102724 C11.432,37.2042724 9.4,45.9842724 4,45.9842724 C3.328,45.9842724 2.702,46.3222724 2.33,46.8842724 C1.96,47.4442724 1.896,48.1542724 2.162,48.7722724 C5.176,55.8042724 10.962,58.2062724 16.002,58.2062724 C17.092,58.2062724 18.144,58.0962724 19.132,57.8922724 C23.306,57.0342724 26.736,54.6862724 28.688,51.6622724 C30.156,54.2242724 32.078,56.4822724 34.27,58.4282724 C32.524,59.1782724 30.768,59.9402724 29.056,60.6562724 C14.114,66.9102724 0,72.8162724 0,85.9842724 L0,94.0102724 L96,94.0102724 L96,85.9842724 C96,72.8162724 81.884,66.9102724 66.942,60.6582724 Z M18.326,53.9742724 C16.482,54.3522724 10.708,55.0042724 7.058,49.4802724 C13.206,47.2902724 15.29,38.2782724 17.48,28.8122724 C19.7,19.2142724 22.218,8.33427243 29.154,5.07027243 C33.496,3.02427243 39.372,3.90827243 47.106,7.77427243 C47.67,8.05627243 48.334,8.05627243 48.896,7.77427243 C56.624,3.90827243 62.496,3.02227243 66.848,5.07027243 C73.784,8.33427243 76.302,19.2142724 78.522,28.8122724 C80.712,38.2782724 82.796,47.2902724 88.944,49.4802724 C85.3,55.0002724 79.538,54.3562724 77.702,53.9762724 C73.69,53.1542724 69.638,50.1622724 69.604,46.0342724 C69.628,45.9382724 69.662,45.8462724 69.686,45.7482724 C72.556,44.9022724 74.502,41.8982724 74.502,37.9862724 C74.502,34.0442724 72.526,31.0222724 69.62,30.2042724 L67.942,23.5002724 C67.718,22.6102724 66.92,21.9862724 66.002,21.9862724 C54.066,21.9862724 52.056,18.6242724 50.726,16.4002724 C50.332,15.7382724 49.956,15.1142724 49.416,14.5722724 C48.666,13.8222724 47.338,13.8222724 46.588,14.5722724 C46.048,15.1142724 45.672,15.7382724 45.278,16.4002724 C43.948,18.6242724 41.938,21.9862724 30.002,21.9862724 C29.084,21.9862724 28.284,22.6102724 28.062,23.5002724 L26.386,30.2002724 C25.01,30.5782724 23.828,31.4522724 22.962,32.7502724 C22.022,34.1622724 21.502,36.0222724 21.502,37.9842724 C21.502,41.8962724 23.446,44.9022724 26.318,45.7462724 C26.348,45.8762724 26.394,45.9962724 26.426,46.1262724 C26.332,50.2022724 22.312,53.1562724 18.326,53.9742724 Z M29.972,43.6562724 C29.812,42.6922724 28.978,41.9842724 28,41.9842724 C26.024,41.9842724 25.5,39.3682724 25.5,37.9842724 C25.5,36.6002724 26.024,33.9842724 28,33.9842724 C28.918,33.9842724 29.718,33.3602724 29.94,32.4702724 L31.566,25.9642724 C42.138,25.6962724 45.842,22.6922724 48,19.5622724 C50.158,22.6942724 53.862,25.6982724 64.434,25.9662724 L66.06,32.4702724 C66.284,33.3602724 67.082,33.9842724 68,33.9842724 C69.976,33.9842724 70.5,36.6002724 70.5,37.9842724 C70.5,39.3682724 69.976,41.9842724 68,41.9842724 C67.022,41.9842724 66.188,42.6922724 66.028,43.6562724 C64.104,55.2022724 51.788,60.4982724 48,61.8682724 C44.21,60.4982724 31.896,55.2022724 29.972,43.6562724 Z M4,90.0102724 L4,85.9842724 C4,78.1102724 10.924,73.2402724 20.402,68.7802724 C21.982,74.2342724 28.098,77.5402724 34.052,80.7442724 C39.312,83.5782724 44.308,86.2782724 45.642,90.0102724 L4,90.0102724 L4,90.0102724 Z M48,85.9482724 C45.396,82.3182724 40.622,79.7382724 35.948,77.2242724 C30.294,74.1782724 24.942,71.2862724 24.12,67.1022724 C26.21,66.1862724 28.376,65.2762724 30.6,64.3442724 C32.994,63.3442724 35.446,62.3022724 37.894,61.2282724 C40.938,63.2762724 44.228,64.8362724 47.368,65.8822724 C47.572,65.9502724 47.788,65.9842724 48,65.9842724 C48.212,65.9842724 48.428,65.9502724 48.636,65.8842724 C51.774,64.8382724 55.062,63.2802724 58.106,61.2322724 C60.554,62.3042724 63.004,63.3462724 65.398,64.3482724 C67.622,65.2782724 69.788,66.1902724 71.878,67.1042724 C71.054,71.2882724 65.704,74.1782724 60.052,77.2242724 C55.378,79.7402724 50.604,82.3182724 48,85.9482724 Z M92,90.0102724 L50.358,90.0102724 C51.692,86.2782724 56.69,83.5782724 61.948,80.7442724 C67.902,77.5402724 74.016,74.2342724 75.598,68.7822724 C85.076,73.2422724 92,78.1122724 92,85.9842724 L92,90.0102724 Z M38,34.0262724 C37.98,35.1162724 37.094,35.9922724 36,35.9922724 C34.894,35.9922724 34,35.0962724 34,33.9922724 C34,32.8002724 34.358,31.8402724 35.062,31.1422724 C36.248,29.9642724 37.906,29.9762724 39.486,29.9902724 L40,29.9902724 L40.514,29.9882724 C42.098,29.9822724 43.752,29.9622724 44.938,31.1402724 C45.642,31.8382724 46,32.7982724 46,33.9902724 C46,35.0942724 45.106,35.9902724 44,35.9902724 C42.906,35.9902724 42.02,35.1142724 42,34.0242724 C41.624,33.9802724 40.996,33.9862724 40.544,33.9862724 L40,33.9902724 L39.454,33.9882724 C39.004,33.9862724 38.374,33.9802724 38,34.0262724 Z M52,35.9922724 C50.894,35.9922724 50,35.0962724 50,33.9922724 C50,32.8002724 50.358,31.8402724 51.062,31.1422724 C52.248,29.9642724 53.9,29.9762724 55.486,29.9902724 L56,29.9902724 L56.514,29.9882724 C58.092,29.9822724 59.752,29.9622724 60.938,31.1402724 C61.642,31.8382724 62,32.7982724 62,33.9902724 C62,35.0942724 61.106,35.9902724 60,35.9902724 C58.906,35.9902724 58.02,35.1142724 58,34.0242724 C57.626,33.9802724 56.998,33.9862724 56.544,33.9862724 L56,33.9902724 L55.454,33.9882724 C55.006,33.9862724 54.374,33.9802724 54,34.0262724 C53.98,35.1162724 53.094,35.9922724 52,35.9922724 Z"/>
      <path fill="#8CB870" d="M72,126 C72,124.199 71.037,122.59 69.56,121.711 C70.585,120.333 70.859,118.48 70.174,116.817 C69.492,115.169 68.007,114.036 66.277,113.787 C66.698,112.121 66.24,110.303 64.967,109.03 C63.73,107.792 61.879,107.302 60.211,107.721 C59.962,106.022 58.843,104.518 57.18,103.828 C55.548,103.154 53.641,103.424 52.284,104.436 C51.405,102.961 49.798,102 48,102 C46.2,102 44.59,102.962 43.709,104.437 C42.352,103.421 40.444,103.152 38.812,103.829 C37.15,104.516 36.031,106.02 35.782,107.722 C34.114,107.3 32.264,107.795 31.026,109.032 C29.753,110.304 29.295,112.122 29.717,113.789 C27.992,114.038 26.511,115.172 25.828,116.818 C25.139,118.48 25.41,120.336 26.434,121.712 C24.961,122.591 24,124.2 24,126 C24,127.8 24.961,129.409 26.435,130.289 C25.41,131.668 25.138,133.522 25.826,135.185 C26.509,136.831 27.991,137.964 29.718,138.213 C29.297,139.879 29.754,141.696 31.026,142.97 C32.264,144.208 34.115,144.7 35.783,144.28 C36.033,145.98 37.151,147.484 38.813,148.173 C40.445,148.85 42.353,148.578 43.71,147.565 C44.591,149.039 46.201,150 48,150 C49.797,150 51.405,149.039 52.285,147.565 C53.642,148.579 55.547,148.849 57.182,148.173 C58.843,147.485 59.962,145.98 60.211,144.28 C61.877,144.703 63.73,144.21 64.968,142.97 C66.241,141.698 66.699,139.88 66.277,138.214 C68.006,137.965 69.492,136.831 70.174,135.185 C70.863,133.524 70.589,131.668 69.561,130.289 C71.038,129.41 72,127.801 72,126 Z M58.683,119.731 L43.683,133.731 C43.49,133.911 43.245,134 43,134 C42.744,134 42.488,133.902 42.293,133.707 L37.293,128.707 C36.902,128.316 36.902,127.684 37.293,127.293 C37.684,126.902 38.316,126.902 38.707,127.293 L43.024,131.609 L57.318,118.269 C57.721,117.894 58.354,117.915 58.731,118.318 C59.108,118.722 59.086,119.355 58.683,119.731 Z"/>
    </g>
    <g fill="#53606F" fill-opacity=".5" transform="translate(184 192)">
      <path d="M84.196 67.104L62.994 60.672C66.57 57.31 69.408 52.914 69.916 47.686 72.658 46.752 74.498 43.804 74.498 40 74.498 38.728 74.274 37.566 73.898 36.53 73.922 36.446 73.968 36.374 73.98 36.284L75.99 22.2C76.022 21.88 76.708 14.296 71.014 8.004 66.208 2.692 58.464 0 48 0 37.536 0 29.792 2.692 24.988 8.004 19.294 14.296 19.98 21.88 20.022 22.284L22.022 36.284C22.034 36.368 22.082 36.436 22.104 36.516 21.724 37.556 21.5 38.722 21.5 40 21.5 43.804 23.34 46.752 26.082 47.686 26.59 52.914 29.43 57.31 33.006 60.672L11.68 67.146C4.694 69.766 0 76.54 0 84L0 96 96 96 96 84C96 76.538 91.306 69.766 84.196 67.104zM27.952 10.688C31.968 6.25 38.712 4 48 4 57.252 4 63.984 6.234 68.006 10.642 72.51 15.578 72.016 21.72 72.02 21.718L70.472 32.558C70.216 32.44 69.96 32.322 69.686 32.24L67.96 23.608C67.774 22.672 66.954 22 66 22 54.064 22 52.054 18.638 50.724 16.414 50.33 15.752 49.956 15.128 49.414 14.586 48.664 13.836 47.336 13.836 46.586 14.586 46.044 15.128 45.672 15.752 45.276 16.414 43.946 18.638 41.936 22 30 22 29.046 22 28.226 22.672 28.038 23.608L26.312 32.24C26.04 32.32 25.784 32.438 25.528 32.556L23.99 21.802C23.984 21.74 23.436 15.678 27.952 10.688zM30 46C30 44.896 29.104 44 28 44 26.022 44 25.5 41.384 25.5 40 25.5 38.616 26.022 36 28 36 28.954 36 29.774 35.328 29.962 34.392L31.644 25.978C42.158 25.698 45.846 22.702 48 19.576 50.154 22.7 53.842 25.698 64.356 25.978L66.038 34.392C66.226 35.328 67.046 36 68 36 69.978 36 70.5 38.616 70.5 40 70.5 41.384 69.978 44 68 44 66.896 44 66 44.896 66 46 66 56.4 53.37 64 48 64 42.63 64 30 56.4 30 46zM92 92L4 92 4 84C4 78.196 7.65 72.928 12.962 70.932L36.788 63.704C40.894 66.474 45.242 68 48 68 50.758 68 55.106 66.474 59.212 63.704L82.914 70.892C88.348 72.928 92 78.196 92 84L92 92zM38 38.036C37.982 39.124 37.092 40 36 40 34.896 40 34 39.104 34 38 34 36.808 34.358 35.848 35.062 35.15 36.248 33.972 37.89 33.984 39.486 33.998L40 34 40.512 33.998C42.102 33.992 43.752 33.972 44.936 35.15 45.642 35.848 46 36.808 46 38 46 39.104 45.104 40 44 40 42.908 40 42.018 39.124 42 38.034 41.622 37.988 40.994 37.994 40.544 37.996L40 38 39.456 37.998C39.006 37.996 38.378 37.99 38 38.036zM52 40C50.896 40 50 39.104 50 38 50 36.808 50.358 35.848 51.062 35.15 52.248 33.972 53.896 33.984 55.486 33.998L56 34 56.512 33.998C58.106 33.992 59.75 33.972 60.936 35.15 61.642 35.848 62 36.808 62 38 62 39.104 61.104 40 60 40 58.908 40 58.018 39.124 58 38.034 57.622 37.988 56.994 37.994 56.544 37.996L56 38 55.456 37.998C55.004 37.996 54.378 37.99 54 38.036 53.982 39.124 53.092 40 52 40zM72 128C72 126.199 71.037 124.59 69.56 123.711 70.585 122.333 70.859 120.479 70.174 118.817 69.492 117.169 68.006 116.036 66.277 115.787 66.698 114.121 66.24 112.303 64.968 111.03 63.731 109.792 61.877 109.299 60.212 109.721 59.963 108.022 58.844 106.518 57.181 105.828 55.549 105.153 53.642 105.423 52.285 106.436 51.405 104.961 49.797 104 48 104 46.201 104 44.591 104.962 43.71 106.437 42.353 105.423 40.444 105.153 38.812 105.829 37.149 106.516 36.031 108.02 35.783 109.722 34.116 109.304 32.265 109.796 31.027 111.032 29.754 112.304 29.296 114.122 29.717 115.789 27.993 116.038 26.511 117.172 25.828 118.818 25.139 120.481 25.41 122.335 26.434 123.712 24.961 124.591 24 126.2 24 128 24 129.8 24.961 131.409 26.435 132.289 25.411 133.667 25.138 135.522 25.826 137.185 26.509 138.831 27.992 139.964 29.718 140.213 29.297 141.879 29.755 143.697 31.026 144.97 32.265 146.208 34.114 146.701 35.783 146.28 36.032 147.98 37.151 149.484 38.813 150.173 40.445 150.849 42.353 150.579 43.71 149.565 44.592 151.039 46.201 152 48 152 49.797 152 51.405 151.039 52.285 149.565 53.643 150.579 55.548 150.851 57.182 150.173 58.843 149.485 59.961 147.98 60.21 146.28 61.875 146.702 63.73 146.211 64.967 144.97 66.239 143.698 66.697 141.88 66.276 140.214 68.005 139.965 69.49 138.831 70.173 137.185 70.862 135.524 70.589 133.668 69.561 132.289 71.038 131.41 72 129.801 72 128zM57.707 136.293C58.098 136.684 58.098 137.316 57.707 137.707 57.512 137.902 57.256 138 57 138 56.744 138 56.488 137.902 56.293 137.707L48 129.414 39.707 137.707C39.512 137.902 39.256 138 39 138 38.744 138 38.488 137.902 38.293 137.707 37.902 137.316 37.902 136.684 38.293 136.293L46.586 128 38.293 119.707C37.902 119.316 37.902 118.684 38.293 118.293 38.684 117.902 39.316 117.902 39.707 118.293L48 126.586 56.293 118.293C56.684 117.902 57.316 117.902 57.707 118.293 58.098 118.684 58.098 119.316 57.707 119.707L49.414 128 57.707 136.293z"/>
    </g>
    <path fill="#53606F" fill-opacity=".75" d="M84.148,67.0885 L69.824,63.1345 C69.754,63.1045 69.682,63.0965 69.61,63.0745 L62.53,61.1205 C66.328,57.7085 69.388,53.1405 69.918,47.6825 C72.66,46.7505 74.5,43.8025 74.5,39.9985 C74.5,36.2325 72.696,33.3065 70,32.3405 L70,23.9985 L70,16.2025 L94.342,11.9685 C95.3,11.8025 96,10.9705 96,9.9985 C96,9.0265 95.3,8.1945 94.344,8.0285 L48.344,0.0285 C48.116,-0.0095 47.884,-0.0095 47.658,0.0285 L1.658,8.0285 C0.7,8.1945 0,9.0265 0,9.9985 C0,10.9705 0.7,11.8025 1.658,11.9685 L10,13.4185 L10,25.7845 L4.044,53.5805 C3.918,54.1705 4.066,54.7865 4.444,55.2565 C4.824,55.7265 5.396,55.9985 6,55.9985 L18,55.9985 C18.604,55.9985 19.176,55.7265 19.556,55.2565 C19.934,54.7865 20.082,54.1705 19.956,53.5805 L14,25.7865 L14,14.1145 L26,16.2005 L26,23.9985 L26,32.3405 C23.304,33.3065 21.5,36.2325 21.5,39.9985 C21.5,43.8025 23.34,46.7505 26.082,47.6845 C26.612,53.1365 29.666,57.6985 33.458,61.1105 L11.68,67.1445 C4.694,69.7645 0,76.5365 0,83.9985 L0,95.9985 L96,95.9985 L96,83.9985 C96,76.5385 91.306,69.7645 84.148,67.0885 Z M15.526,51.9985 L8.474,51.9985 L12,35.5445 L15.526,51.9985 Z M13.672,9.9985 L48,4.0285 L82.328,9.9985 L69.014,12.3145 C68.712,12.1325 68.378,11.9985 68,11.9985 C67.374,11.9985 66.836,12.3045 66.47,12.7565 L48,15.9685 L29.53,12.7565 C29.164,12.3045 28.626,11.9985 28,11.9985 C27.622,11.9985 27.288,12.1325 26.986,12.3145 L13.672,9.9985 Z M66,16.8985 L66,23.0665 C64.242,24.4025 58.532,27.9985 48,27.9985 C37.456,27.9985 31.746,24.3945 30,23.0685 L30,16.8985 L47.658,19.9685 C47.77,19.9885 47.886,19.9985 48,19.9985 C48.114,19.9985 48.23,19.9885 48.342,19.9685 L66,16.8985 Z M30,45.9985 C30,44.8945 29.104,43.9985 28,43.9985 C26.022,43.9985 25.5,41.3825 25.5,39.9985 C25.5,38.8345 25.788,37.7345 26.288,36.9825 C26.876,36.1005 27.546,35.9985 28,35.9985 C29.104,35.9985 30,35.1025 30,33.9985 L30,27.8305 C33.326,29.7105 39.172,31.9985 48,31.9985 C56.828,31.9985 62.674,29.7105 66,27.8305 L66,33.9985 C66,35.1025 66.896,35.9985 68,35.9985 C69.978,35.9985 70.5,38.6145 70.5,39.9985 C70.5,41.1625 70.212,42.2625 69.71,43.0145 C69.122,43.8965 68.454,43.9985 68,43.9985 C66.896,43.9985 66,44.8945 66,45.9985 C66,51.9785 61.822,57.0225 57.252,60.2385 C57.196,60.2685 57.15,60.3085 57.098,60.3425 C53.766,62.6525 50.248,63.9985 48,63.9985 C42.63,63.9985 30,56.3985 30,45.9985 Z M37.484,64.1425 C41.378,66.6265 45.398,67.9985 48,67.9985 C50.598,67.9985 54.606,66.6305 58.494,64.1585 L65.172,65.9985 L48,83.1705 L30.818,65.9885 L37.484,64.1425 Z M92,91.9985 L4,91.9985 L4,83.9985 C4,78.1945 7.652,72.9265 12.916,70.9445 L26.388,67.2145 L48,88.8265 L69.606,67.2205 L82.914,70.8905 C88.348,72.9265 92,78.1965 92,83.9985 L92,91.9985 Z M38,38.0385 C37.982,39.1285 37.092,40.0045 36,40.0045 C34.896,40.0045 34,39.1085 34,38.0045 C34,36.8125 34.358,35.8525 35.062,35.1525 C36.246,33.9765 37.888,33.9885 39.484,34.0005 L40,34.0045 L40.514,34.0025 C42.104,33.9865 43.75,33.9765 44.938,35.1545 C45.642,35.8545 46,36.8145 46,38.0065 C46,39.1085 45.104,40.0045 44,40.0045 C42.908,40.0045 42.018,39.1285 42,38.0385 C41.624,37.9945 41,37.9985 40.546,38.0025 L40,38.0045 L39.454,38.0025 C39.002,37.9985 38.376,37.9945 38,38.0385 Z M52,40.0045 C50.896,40.0045 50,39.1085 50,38.0045 C50,36.8125 50.358,35.8525 51.062,35.1525 C52.248,33.9765 53.882,33.9885 55.484,34.0005 L56,34.0045 L56.514,34.0025 C58.108,33.9865 59.75,33.9765 60.938,35.1545 C61.642,35.8545 62,36.8145 62,38.0065 C62,39.1085 61.104,40.0045 60,40.0045 C58.908,40.0045 58.018,39.1285 58,38.0385 C57.624,37.9945 56.998,37.9985 56.546,38.0025 L56,38.0045 L55.454,38.0025 C55.002,37.9985 54.376,37.9945 54,38.0385 C53.982,39.1285 53.092,40.0045 52,40.0045 Z"/>
    <path fill="#8CB870" d="M72,128 C72,126.199 71.037,124.59 69.56,123.711 C70.585,122.333 70.859,120.48 70.174,118.817 C69.492,117.169 68.007,116.036 66.277,115.787 C66.698,114.121 66.24,112.303 64.967,111.03 C63.73,109.792 61.879,109.302 60.211,109.721 C59.962,108.022 58.843,106.518 57.18,105.828 C55.548,105.154 53.641,105.424 52.284,106.436 C51.405,104.961 49.798,104 48,104 C46.2,104 44.59,104.962 43.709,106.437 C42.352,105.421 40.444,105.152 38.812,105.829 C37.15,106.516 36.031,108.02 35.782,109.722 C34.114,109.3 32.264,109.795 31.026,111.032 C29.753,112.304 29.295,114.122 29.717,115.789 C27.992,116.038 26.511,117.172 25.828,118.818 C25.139,120.48 25.41,122.336 26.434,123.712 C24.961,124.591 24,126.2 24,128 C24,129.8 24.961,131.409 26.435,132.289 C25.41,133.668 25.138,135.522 25.826,137.185 C26.509,138.831 27.991,139.964 29.718,140.213 C29.297,141.879 29.754,143.696 31.026,144.97 C32.264,146.208 34.115,146.7 35.783,146.28 C36.033,147.98 37.151,149.484 38.813,150.173 C40.445,150.85 42.353,150.578 43.71,149.565 C44.591,151.039 46.201,152 48,152 C49.797,152 51.405,151.039 52.285,149.565 C53.642,150.579 55.547,150.849 57.182,150.173 C58.843,149.485 59.962,147.98 60.211,146.28 C61.877,146.703 63.73,146.21 64.968,144.97 C66.241,143.698 66.699,141.88 66.277,140.214 C68.006,139.965 69.492,138.831 70.174,137.185 C70.863,135.524 70.589,133.668 69.561,132.289 C71.038,131.41 72,129.801 72,128 Z M58.683,121.731 L43.683,135.731 C43.49,135.911 43.245,136 43,136 C42.744,136 42.488,135.902 42.293,135.707 L37.293,130.707 C36.902,130.316 36.902,129.684 37.293,129.293 C37.684,128.902 38.316,128.902 38.707,129.293 L43.024,133.609 L57.318,120.269 C57.721,119.894 58.354,119.915 58.731,120.318 C59.108,120.722 59.086,121.355 58.683,121.731 Z"/>
    <g fill="#53606F" fill-opacity=".5" transform="translate(184)">
      <path d="M84.186 72.0845L63.63 65.9765C66.85 62.7225 69.344 58.5905 69.83 53.7425 72.648 52.9585 74.858 50.4405 75.696 46.8925 76.468 43.6245 75.764 40.6325 73.94 38.9845L74 36.0425C74 36.0345 73.996 36.0285 73.996 36.0205 73.996 36.0125 74 36.0085 74 36.0005L74 28.0005 74 26.0005 74 6.0005C74 5.2625 73.594 4.5865 72.94 4.2365 72.292 3.8865 71.5 3.9265 70.888 4.3365L60.252 11.4265 49.412.5865C48.63-.1955 47.366-.1955 46.584.5865L35.744 11.4265 25.108 4.3365C24.494 3.9265 23.704 3.8865 23.056 4.2365 22.406 4.5865 22 5.2625 22 6.0005L22 26.0005 22 28.0005 22 35.9585 21.938 38.9445C20.082 40.5845 19.362 43.5985 20.138 46.8905 20.976 50.4385 23.188 52.9545 26.004 53.7405 26.494 58.6085 29.004 62.7525 32.242 66.0125L11.68 72.1265C4.694 74.7485 0 84.5185 0 92.0005L0 96.0005 96 96.0005 96 92.0005C96 84.5185 91.306 74.7485 84.186 72.0845zM26 28.0005L26 26.0005 26 9.7385 34.89 15.6645C35.686 16.1945 36.74 16.0885 37.414 15.4145L48 4.8285 58.586 15.4145C59.262 16.0885 60.318 16.1965 61.11 15.6645L70 9.7385 70 26.0005 70 28.0005 70 33.0845C66.262 31.8365 58.906 30.0005 47.918 30.0005 36.978 30.0005 29.71 31.8205 26 33.0705L26 28.0005zM29.918 52.0005L29.918 50.0005 27.918 50.0005C25.752 50.0005 24.472 47.8305 24.032 45.9725 23.584 44.0705 23.926 42.2325 24.812 41.7905L25.892 41.2505 25.974 37.3365C28.564 36.3365 35.886 34.0005 47.918 34.0005 59.89 34.0005 67.296 36.3105 69.972 37.3245L69.892 41.2225 71.022 41.7885C71.908 42.2305 72.252 44.0685 71.802 45.9705 71.364 47.8305 70.082 50.0005 67.918 50.0005L65.918 50.0005 65.918 52.0005C65.918 62.4005 53.288 70.0005 47.918 70.0005 42.548 70.0005 29.918 62.4005 29.918 52.0005zM35.872 69.1025C40.216 72.2465 44.974 74.0005 47.918 74.0005 50.874 74.0005 55.654 72.2345 60.008 69.0725L64.514 70.4105 54.174 78.9745C52.704 77.1745 50.498 76.0005 48 76.0005 45.356 76.0005 43.026 77.3045 41.568 79.2865L31.386 70.4365 35.872 69.1025zM52 84.0005C52 86.2065 50.206 88.0005 48 88.0005 45.794 88.0005 44 86.2065 44 84.0005 44 81.7945 45.794 80.0005 48 80.0005 50.206 80.0005 52 81.7945 52 84.0005zM48 92.0005L4 92.0005C4 85.9845 7.73 77.8805 12.952 75.9165L26.842 71.7885 40.072 83.2865C40.05 83.5265 40 83.7565 40 84.0005 40 88.4125 43.588 92.0005 48 92.0005 52.412 92.0005 56 88.4125 56 84.0005 56 83.5745 55.938 83.1665 55.874 82.7585L69.128 71.7805 82.914 75.8745C88.268 77.8805 92 85.9845 92 92.0005L48 92.0005zM38 42.0365C37.982 43.1245 37.092 44.0005 36 44.0005 34.896 44.0005 34 43.1045 34 42.0005 34 40.8085 34.358 39.8485 35.062 39.1505 36.248 37.9725 37.894 37.9845 39.486 37.9985L40 38.0005 40.512 37.9985C42.104 37.9905 43.75 37.9725 44.936 39.1505 45.642 39.8485 46 40.8085 46 42.0005 46 43.1045 45.104 44.0005 44 44.0005 42.908 44.0005 42.018 43.1245 42 42.0345 41.622 41.9905 40.994 41.9945 40.544 41.9965L40 42.0005 39.456 41.9985C39.004 41.9965 38.376 41.9925 38 42.0365zM52 44.0005C50.896 44.0005 50 43.1045 50 42.0005 50 40.8085 50.358 39.8485 51.062 39.1505 52.248 37.9725 53.89 37.9845 55.486 37.9985L56 38.0005 56.512 37.9985C58.1 37.9905 59.752 37.9725 60.936 39.1505 61.642 39.8485 62 40.8085 62 42.0005 62 43.1045 61.104 44.0005 60 44.0005 58.908 44.0005 58.018 43.1245 58 42.0345 57.622 41.9905 56.996 41.9945 56.544 41.9965L56 42.0005 55.456 41.9985C55.006 41.9965 54.376 41.9925 54 42.0365 53.982 43.1245 53.092 44.0005 52 44.0005zM72 128C72 126.199 71.037 124.59 69.56 123.711 70.585 122.333 70.859 120.479 70.174 118.817 69.492 117.169 68.006 116.036 66.277 115.787 66.698 114.121 66.24 112.303 64.968 111.03 63.731 109.792 61.877 109.299 60.212 109.721 59.963 108.022 58.844 106.518 57.181 105.828 55.549 105.153 53.642 105.423 52.285 106.436 51.405 104.961 49.797 104 48 104 46.201 104 44.591 104.962 43.71 106.437 42.353 105.423 40.444 105.153 38.812 105.829 37.149 106.516 36.031 108.02 35.783 109.722 34.116 109.304 32.265 109.796 31.027 111.032 29.754 112.304 29.296 114.122 29.717 115.789 27.993 116.038 26.511 117.172 25.828 118.818 25.139 120.481 25.41 122.335 26.434 123.712 24.961 124.591 24 126.2 24 128 24 129.8 24.961 131.409 26.435 132.289 25.411 133.667 25.138 135.522 25.826 137.185 26.509 138.831 27.992 139.964 29.718 140.213 29.297 141.879 29.755 143.697 31.026 144.97 32.265 146.208 34.114 146.701 35.783 146.28 36.032 147.98 37.151 149.484 38.813 150.173 40.445 150.849 42.353 150.579 43.71 149.565 44.592 151.039 46.201 152 48 152 49.797 152 51.405 151.039 52.285 149.565 53.643 150.579 55.548 150.851 57.182 150.173 58.843 149.485 59.961 147.98 60.21 146.28 61.875 146.702 63.73 146.211 64.967 144.97 66.239 143.698 66.697 141.88 66.276 140.214 68.005 139.965 69.49 138.831 70.173 137.185 70.862 135.524 70.589 133.668 69.561 132.289 71.038 131.41 72 129.801 72 128zM57.707 136.293C58.098 136.684 58.098 137.316 57.707 137.707 57.512 137.902 57.256 138 57 138 56.744 138 56.488 137.902 56.293 137.707L48 129.414 39.707 137.707C39.512 137.902 39.256 138 39 138 38.744 138 38.488 137.902 38.293 137.707 37.902 137.316 37.902 136.684 38.293 136.293L46.586 128 38.293 119.707C37.902 119.316 37.902 118.684 38.293 118.293 38.684 117.902 39.316 117.902 39.707 118.293L48 126.586 56.293 118.293C56.684 117.902 57.316 117.902 57.707 118.293 58.098 118.684 58.098 119.316 57.707 119.707L49.414 128 57.707 136.293z"/>
    </g>
  </g>
</svg>
